<svg width="21" height="20" viewBox="0 0 21 20" fill="none" xmlns="http://www.w3.org/2000/svg">
<path opacity="0.8" d="M10.6439 0C5.12107 0 0.643921 4.47715 0.643921 10C0.643921 15.5228 5.12107 20 10.6439 20C16.1668 20 20.6439 15.5228 20.6439 10C20.6375 4.47982 16.1641 0.00642897 10.6439 0Z" fill="black"/>
<path d="M16.4164 6.83337L10.7122 14.5742C10.5762 14.7547 10.3733 14.873 10.1493 14.9024C9.92516 14.9319 9.69864 14.8701 9.52057 14.7309L5.44724 11.4742C5.08779 11.1866 5.02959 10.662 5.31724 10.3025C5.60488 9.94309 6.12946 9.88489 6.4889 10.1725L9.88557 12.89L15.0747 5.84754C15.2449 5.5922 15.5416 5.45103 15.8471 5.48007C16.1525 5.50912 16.4173 5.70368 16.5363 5.98652C16.6553 6.26935 16.6092 6.59469 16.4164 6.83337Z" fill="white"/>
</svg>
