<svg width="75" height="73" viewBox="0 0 75 73" fill="none" xmlns="http://www.w3.org/2000/svg">
<path d="M37.5 0.618652C17.1404 0.618652 0.63562 16.6833 0.63562 36.5C0.63562 56.3167 17.1404 72.3814 37.5 72.3814C57.8597 72.3814 74.3644 56.3167 74.3644 36.5C74.3644 16.6833 57.8597 0.618652 37.5 0.618652ZM37.5 1.85594C57.1576 1.85594 73.0932 17.3666 73.0932 36.5C73.0932 55.6334 57.1576 71.1441 37.5 71.1441C17.8424 71.1441 1.90681 55.6334 1.90681 36.5C1.90681 17.3666 17.8424 1.85594 37.5 1.85594Z" fill="url(#paint0_linear_14_1598)"/>
<path fill-rule="evenodd" clip-rule="evenodd" d="M50.25 36.313L40.4872 26.3496C40.032 25.8963 39.2931 25.8436 38.7616 26.3038C38.2873 26.7136 38.2754 27.5149 38.7139 27.9613L46.551 35.9467H26.6441C25.9695 35.9467 25.4237 36.471 25.4237 37.1189C25.4237 37.7668 25.9695 38.291 26.6441 38.291H46.551L38.7139 46.2764C38.2754 46.7229 38.3063 47.5036 38.7616 47.9339C39.2431 48.3872 40.0392 48.3483 40.4872 47.8882L50.25 37.9247C50.536 37.6546 50.5884 37.3936 50.5932 37.1189C50.5932 36.8487 50.4216 36.487 50.25 36.313Z" fill="url(#paint1_linear_14_1598)"/>
<defs>
<linearGradient id="paint0_linear_14_1598" x1="0.63562" y1="0.618652" x2="72.3721" y2="74.3205" gradientUnits="userSpaceOnUse">
<stop stop-color="#6CDAEA"/>
<stop offset="0.447624" stop-color="#3DA0CF"/>
<stop offset="1" stop-color="#1E93CE"/>
</linearGradient>
<linearGradient id="paint1_linear_14_1598" x1="25.4237" y1="27.9158" x2="48.048" y2="49.0468" gradientUnits="userSpaceOnUse">
<stop stop-color="#70DBE9"/>
<stop offset="0.447624" stop-color="#3E9ECE"/>
<stop offset="1" stop-color="#2285CA"/>
</linearGradient>
</defs>
</svg>
