<svg width="75" height="73" viewBox="0 0 75 73" fill="none" xmlns="http://www.w3.org/2000/svg">
<path d="M37.5 0.618652C57.8597 0.618652 74.3644 16.6833 74.3644 36.5C74.3644 56.3167 57.8597 72.3814 37.5 72.3814C17.1404 72.3814 0.635597 56.3167 0.635597 36.5C0.635597 16.6833 17.1404 0.618652 37.5 0.618652ZM37.5 1.85594C17.8424 1.85594 1.90678 17.3666 1.90678 36.5C1.90678 55.6334 17.8424 71.1441 37.5 71.1441C57.1576 71.1441 73.0932 55.6334 73.0932 36.5C73.0932 17.3666 57.1576 1.85594 37.5 1.85594Z" fill="url(#paint0_linear_14_1588)"/>
<path fill-rule="evenodd" clip-rule="evenodd" d="M24.75 36.313L34.5127 26.3496C34.968 25.8963 35.7069 25.8436 36.2384 26.3038C36.7127 26.7136 36.7246 27.5149 36.286 27.9613L28.449 35.9467H48.3559C49.0305 35.9467 49.5763 36.471 49.5763 37.1189C49.5763 37.7668 49.0304 38.291 48.3559 38.291H28.449L36.286 46.2764C36.7246 46.7229 36.6936 47.5036 36.2384 47.9339C35.7569 48.3872 34.9608 48.3483 34.5127 47.8882L24.75 37.9247C24.464 37.6546 24.4115 37.3936 24.4068 37.1189C24.4068 36.8487 24.5784 36.487 24.75 36.313Z" fill="url(#paint1_linear_14_1588)"/>
<defs>
<linearGradient id="paint0_linear_14_1588" x1="74.3644" y1="0.618652" x2="2.6279" y2="74.3205" gradientUnits="userSpaceOnUse">
<stop stop-color="#6CDAEA"/>
<stop offset="0.447624" stop-color="#3DA0CF"/>
<stop offset="1" stop-color="#1E93CE"/>
</linearGradient>
<linearGradient id="paint1_linear_14_1588" x1="49.5763" y1="27.9158" x2="26.952" y2="49.0468" gradientUnits="userSpaceOnUse">
<stop stop-color="#70DBE9"/>
<stop offset="0.447624" stop-color="#3E9ECE"/>
<stop offset="1" stop-color="#2285CA"/>
</linearGradient>
</defs>
</svg>
