<svg width="25" height="21" viewBox="0 0 25 21" fill="none" xmlns="http://www.w3.org/2000/svg">
<path fill-rule="evenodd" clip-rule="evenodd" d="M11.1109 13.4959V2.9991C11.1109 1.34274 9.86731 0 8.33321 0H2.77773C1.24363 0 0 1.34274 0 2.9991V8.99731C0 10.6537 1.24363 11.9964 2.77773 11.9964H6.94435V13.4959C6.9701 14.9484 6.02801 16.2121 4.70826 16.4951C4.40036 16.5698 4.17785 16.8593 4.1666 17.1998V20.199C4.15628 20.4317 4.24288 20.6572 4.40271 20.8138C4.55044 20.9559 4.74817 21.0216 4.94437 20.9937C8.47308 20.5644 11.1333 17.3299 11.1109 13.4959ZM16.6667 0H22.2222C23.7563 0 24.9999 1.34274 24.9999 2.9991V13.4959C25.0151 17.3242 22.3568 20.55 18.8333 20.9787C18.6371 21.0066 18.4395 20.9409 18.2917 20.7987C18.143 20.6526 18.0573 20.4461 18.0556 20.2289V17.2299C18.0541 16.878 18.2794 16.5725 18.5973 16.4951C19.917 16.2121 20.8591 14.9484 20.8333 13.4959V11.9964H16.6667C15.1326 11.9964 13.889 10.6537 13.889 8.99731V2.9991C13.889 1.34274 15.1326 0 16.6667 0Z" fill="url(#paint0_linear_77_1157)"/>
<defs>
<linearGradient id="paint0_linear_77_1157" x1="-0.269171" y1="20.8768" x2="25.72" y2="20.2686" gradientUnits="userSpaceOnUse">
<stop offset="0.0523201" stop-color="#6AD7E9"/>
<stop offset="0.5" stop-color="#3E9ECE"/>
<stop offset="1" stop-color="#4894C9"/>
</linearGradient>
</defs>
</svg>
